grf
version=1
nRows=9
nColumns=37
inDegrees=no
endheader
time	ground_force_1_vx	ground_force_1_vy	ground_force_1_vz	ground_force_1_px	ground_force_1_py	ground_force_1_pz	ground_moment_1_mx	ground_moment_1_my	ground_moment_1_mz	ground_force_2_vx	ground_force_2_vy	ground_force_2_vz	ground_force_2_px	ground_force_2_py	ground_force_2_pz	ground_moment_2_mx	ground_moment_2_my	ground_moment_2_mz	ground_force_3_vx	ground_force_3_vy	ground_force_3_vz	ground_force_3_px	ground_force_3_py	ground_force_3_pz	ground_moment_3_mx	ground_moment_3_my	ground_moment_3_mz	ground_force_4_vx	ground_force_4_vy	ground_force_4_vz	ground_force_4_px	ground_force_4_py	ground_force_4_pz	ground_moment_4_mx	ground_moment_4_my	ground_moment_4_mz
      0.00000000	      0.00000000	     -0.00000000	      0.00000000	      0.00000000	      0.00000000	      0.00000000	      0.00000000	      0.00000000	      0.00000000	      0.00000000	     -0.00000000	      0.00000000	      0.00000000	      0.00000000	      0.00000000	      0.00000000	      0.00000000	      0.00000000	      5.74180218	    -98.59902241	   -705.57208252	   -361.27368195	   -629.92688485	      0.00000000	      0.00000000	      0.00000000	   1784.71305366	    -35.25468303	     16.21882175	     75.45471191	    606.23736454	   -561.88450278	      0.00000000	      0.00000000	     -0.00000000	   -144.69395602
      0.01000000	      0.00000000	     -0.00000000	      0.00000000	      0.00000000	      0.00000000	      0.00000000	      0.00000000	      0.00000000	      0.00000000	      0.00000000	     -0.00000000	      0.00000000	      0.00000000	      0.00000000	      0.00000000	      0.00000000	      0.00000000	      0.00000000	      7.12084574	    -98.83197084	   -705.38067627	   -360.70988187	   -630.37666651	      0.00000000	      0.00000000	      0.00000000	   1977.62112115	    -35.33609632	     15.95683407	     76.85852051	    599.64005704	   -560.55314547	      0.00000000	      0.00000000	      0.00000000	    124.16621641
      0.02000000	      0.00000000	     -0.00000000	      0.00000000	      0.00000000	      0.00000000	      0.00000000	      0.00000000	      0.00000000	      0.00000000	      0.00000000	     -0.00000000	      0.00000000	      0.00000000	      0.00000000	      0.00000000	      0.00000000	      0.00000000	      0.00000000	      7.48338460	    -98.28626317	   -707.89239502	   -359.91935602	   -629.85816992	      0.00000000	      0.00000000	      0.00000000	   2151.30938218	    -35.42555095	     16.24463200	     75.13486481	    607.13250307	   -567.96221700	      0.00000000	      0.00000000	      0.00000000	    153.07603468
      0.03000000	      0.00000000	     -0.00000000	      0.00000000	      0.00000000	      0.00000000	      0.00000000	      0.00000000	      0.00000000	      0.00000000	      0.00000000	     -0.00000000	      0.00000000	      0.00000000	      0.00000000	      0.00000000	      0.00000000	      0.00000000	      0.00000000	      8.08054539	    -98.55132364	   -705.06109619	   -359.54572530	   -629.68716002	      0.00000000	      0.00000000	      0.00000000	   2150.29489614	    -35.26239253	     16.26073192	     76.12570190	    605.36136796	   -561.58357510	      0.00000000	      0.00000000	     -0.00000000	   -169.19984141
      0.04000000	      0.00000000	     -0.00000000	      0.00000000	      0.00000000	      0.00000000	      0.00000000	      0.00000000	      0.00000000	      0.00000000	      0.00000000	     -0.00000000	      0.00000000	      0.00000000	      0.00000000	      0.00000000	      0.00000000	      0.00000000	      0.00000000	      8.08047296	    -98.06814646	   -701.29205322	   -358.67433232	   -628.65900013	      0.00000000	      0.00000000	      0.00000000	   2359.37421107	    -35.19621517	     16.17883418	     74.95061493	    608.48842113	   -563.48089584	      0.00000000	      0.00000000	     -0.00000000	   -194.92483363
      0.05000000	      0.00000000	     -0.00000000	      0.00000000	      0.00000000	      0.00000000	      0.00000000	      0.00000000	      0.00000000	      0.00000000	      0.00000000	     -0.00000000	      0.00000000	      0.00000000	      0.00000000	      0.00000000	      0.00000000	      0.00000000	      0.00000000	      7.25099855	    -97.58001009	   -692.50305176	   -357.53431189	   -628.11378586	      0.00000000	      0.00000000	      0.00000000	   2253.83166528	    -35.06771707	     16.45663568	     78.33909607	    596.72942658	   -557.68715400	      0.00000000	      0.00000000	      0.00000000	   -243.79663659
      0.06000000	      0.00000000	     -0.00000000	      0.00000000	      0.00000000	      0.00000000	      0.00000000	      0.00000000	      0.00000000	      0.00000000	      0.00000000	     -0.00000000	      0.00000000	      0.00000000	      0.00000000	      0.00000000	      0.00000000	      0.00000000	      0.00000000	      5.24936451	    -96.68919418	   -683.79083252	   -356.70146266	   -628.52211505	      0.00000000	      0.00000000	      0.00000000	   2407.25536952	    -34.79934550	     16.29227561	     73.97268677	    613.43023687	   -567.67166612	      0.00000000	      0.00000000	     -0.00000000	    -95.43399784
      0.07000000	      0.00000000	     -0.00000000	      0.00000000	      0.00000000	      0.00000000	      0.00000000	      0.00000000	      0.00000000	      0.00000000	      0.00000000	     -0.00000000	      0.00000000	      0.00000000	      0.00000000	      0.00000000	      0.00000000	      0.00000000	      0.00000000	      4.39731608	    -96.99243965	   -681.45367432	   -354.91761620	   -627.35786475	      0.00000000	      0.00000000	      0.00000000	   2264.36720825	    -35.41790246	     16.46444630	     75.77565765	    604.38677406	   -566.41984171	      0.00000000	      0.00000000	      0.00000000	     76.96789726
      0.08000000	      0.00000000	     -0.00000000	      0.00000000	      0.00000000	      0.00000000	      0.00000000	      0.00000000	      0.00000000	      0.00000000	      7.60574818	     -2.51087403	    -34.11639404	   -386.50643424	  -1046.83457939	      0.00000000	      0.00000000	     -0.00000000	   1733.83607132	      2.66891411	    -97.79480767	   -679.06994629	   -353.32602992	   -627.23215221	      0.00000000	      0.00000000	      0.00000000	   2313.56947136	    -35.24663401	     16.36682819	     75.16342163	    604.60141676	   -564.18338724	      0.00000000	      0.00000000	      0.00000000	     92.50326749
